<svg width="32" height="32" viewBox="0 0 32 32" fill="none" xmlns="http://www.w3.org/2000/svg">
<path d="M12 7.667C11.6464 7.667 11.3073 7.80748 11.0572 8.05753C10.8072 8.30758 10.6667 8.64672 10.6667 9.00034C10.6667 9.35396 10.8072 9.6931 11.0572 9.94315C11.3073 10.1932 11.6464 10.3337 12 10.3337C12.3537 10.3337 12.6928 10.1932 12.9428 9.94315C13.1929 9.6931 13.3334 9.35396 13.3334 9.00034C13.3334 8.64672 13.1929 8.30758 12.9428 8.05753C12.6928 7.80748 12.3537 7.667 12 7.667ZM8.22671 7.667C8.50218 6.88629 9.01303 6.21025 9.68884 5.73206C10.3647 5.25386 11.1722 4.99707 12 4.99707C12.8279 4.99707 13.6354 5.25386 14.3112 5.73206C14.9871 6.21025 15.4979 6.88629 15.7734 7.667H25.3334C25.687 7.667 26.0261 7.80748 26.2762 8.05753C26.5262 8.30758 26.6667 8.64672 26.6667 9.00034C26.6667 9.35396 26.5262 9.6931 26.2762 9.94315C26.0261 10.1932 25.687 10.3337 25.3334 10.3337H15.7734C15.4979 11.1144 14.9871 11.7904 14.3112 12.2686C13.6354 12.7468 12.8279 13.0036 12 13.0036C11.1722 13.0036 10.3647 12.7468 9.68884 12.2686C9.01303 11.7904 8.50218 11.1144 8.22671 10.3337H6.66671C6.31309 10.3337 5.97395 10.1932 5.7239 9.94315C5.47385 9.6931 5.33337 9.35396 5.33337 9.00034C5.33337 8.64672 5.47385 8.30758 5.7239 8.05753C5.97395 7.80748 6.31309 7.667 6.66671 7.667H8.22671ZM20 15.667C19.6464 15.667 19.3073 15.8075 19.0572 16.0575C18.8072 16.3076 18.6667 16.6467 18.6667 17.0003C18.6667 17.354 18.8072 17.6931 19.0572 17.9431C19.3073 18.1932 19.6464 18.3337 20 18.3337C20.3537 18.3337 20.6928 18.1932 20.9429 17.9431C21.1929 17.6931 21.3334 17.354 21.3334 17.0003C21.3334 16.6467 21.1929 16.3076 20.9429 16.0575C20.6928 15.8075 20.3537 15.667 20 15.667ZM16.2267 15.667C16.5022 14.8863 17.013 14.2102 17.6888 13.7321C18.3647 13.2539 19.1722 12.9971 20 12.9971C20.8279 12.9971 21.6354 13.2539 22.3112 13.7321C22.9871 14.2102 23.4979 14.8863 23.7734 15.667H25.3334C25.687 15.667 26.0261 15.8075 26.2762 16.0575C26.5262 16.3076 26.6667 16.6467 26.6667 17.0003C26.6667 17.354 26.5262 17.6931 26.2762 17.9431C26.0261 18.1932 25.687 18.3337 25.3334 18.3337H23.7734C23.4979 19.1144 22.9871 19.7904 22.3112 20.2686C21.6354 20.7468 20.8279 21.0036 20 21.0036C19.1722 21.0036 18.3647 20.7468 17.6888 20.2686C17.013 19.7904 16.5022 19.1144 16.2267 18.3337H6.66671C6.31309 18.3337 5.97395 18.1932 5.7239 17.9431C5.47385 17.6931 5.33337 17.354 5.33337 17.0003C5.33337 16.6467 5.47385 16.3076 5.7239 16.0575C5.97395 15.8075 6.31309 15.667 6.66671 15.667H16.2267ZM12 23.667C11.6464 23.667 11.3073 23.8075 11.0572 24.0575C10.8072 24.3076 10.6667 24.6467 10.6667 25.0003C10.6667 25.354 10.8072 25.6931 11.0572 25.9431C11.3073 26.1932 11.6464 26.3337 12 26.3337C12.3537 26.3337 12.6928 26.1932 12.9428 25.9431C13.1929 25.6931 13.3334 25.354 13.3334 25.0003C13.3334 24.6467 13.1929 24.3076 12.9428 24.0575C12.6928 23.8075 12.3537 23.667 12 23.667ZM8.22671 23.667C8.50218 22.8863 9.01303 22.2102 9.68884 21.7321C10.3647 21.2539 11.1722 20.9971 12 20.9971C12.8279 20.9971 13.6354 21.2539 14.3112 21.7321C14.9871 22.2102 15.4979 22.8863 15.7734 23.667H25.3334C25.687 23.667 26.0261 23.8075 26.2762 24.0575C26.5262 24.3076 26.6667 24.6467 26.6667 25.0003C26.6667 25.354 26.5262 25.6931 26.2762 25.9431C26.0261 26.1932 25.687 26.3337 25.3334 26.3337H15.7734C15.4979 27.1144 14.9871 27.7904 14.3112 28.2686C13.6354 28.7468 12.8279 29.0036 12 29.0036C11.1722 29.0036 10.3647 28.7468 9.68884 28.2686C9.01303 27.7904 8.50218 27.1144 8.22671 26.3337H6.66671C6.31309 26.3337 5.97395 26.1932 5.7239 25.9431C5.47385 25.6931 5.33337 25.354 5.33337 25.0003C5.33337 24.6467 5.47385 24.3076 5.7239 24.0575C5.97395 23.8075 6.31309 23.667 6.66671 23.667H8.22671Z" fill="white"/>
</svg>
