<svg width="32" height="32" viewBox="0 0 32 32" fill="none" xmlns="http://www.w3.org/2000/svg">
<path d="M12.6667 2.6665C13.5129 2.66637 14.3276 2.98815 14.9454 3.56656C15.5632 4.14497 15.9378 4.9367 15.9933 5.78117L16 5.99984V12.1398L23.256 12.9465C24.514 13.0863 25.6813 13.669 26.5492 14.5904C27.417 15.5117 27.9289 16.7117 27.9933 17.9758L28 18.2465V18.6665C28 21.4377 26.9214 24.1002 24.9927 26.0901C23.064 28.08 20.4365 29.2412 17.6667 29.3278L17.3333 29.3332H16.4347C14.518 29.3331 12.6367 28.8166 10.9886 27.838C9.3406 26.8594 7.98671 25.4547 7.06932 23.7718L6.89466 23.4372L3.10532 15.8585C2.62532 14.8985 2.98132 13.6145 4.10132 13.1545C5.49199 12.5852 6.81332 12.4785 8.17466 13.1705C8.47066 13.3216 8.76132 13.5056 9.04666 13.7225L9.33332 13.9492V5.99984C9.33332 5.11578 9.68451 4.26794 10.3096 3.64281C10.9348 3.01769 11.7826 2.6665 12.6667 2.6665ZM5.98399 4.59984C6.28811 4.41896 6.65162 4.3663 6.99456 4.45344C7.3375 4.54058 7.63178 4.76039 7.81266 5.0645C7.99354 5.36862 8.0462 5.73213 7.95905 6.07507C7.87191 6.41801 7.65211 6.71229 7.34799 6.89317C6.54799 7.36917 5.96266 7.86517 5.58532 8.23184C5.46385 8.34913 5.34688 8.471 5.23466 8.59717L5.07332 8.7905C4.86428 9.07421 4.55143 9.26363 4.20314 9.31735C3.85485 9.37106 3.49946 9.28471 3.21466 9.07717C2.93171 8.86647 2.74274 8.55314 2.68839 8.20457C2.63403 7.856 2.71863 7.50002 2.92399 7.21317C3.16541 6.89413 3.433 6.59576 3.72399 6.32117C4.40819 5.66227 5.1666 5.08373 5.98399 4.59984ZM19.1973 3.83984C20.4277 4.37157 21.5669 5.09325 22.5733 5.9785C22.9933 6.35184 23.4107 6.75717 23.744 7.2145C23.9522 7.50024 24.0385 7.857 23.9837 8.2063C23.9289 8.55561 23.7377 8.86886 23.452 9.07717C22.9053 9.47717 22.1573 9.38384 21.7 8.9145L21.504 8.68117L21.3747 8.5345L21.188 8.3385L21.0747 8.22517L20.8027 7.97184C20.0063 7.27453 19.1056 6.70631 18.1333 6.28784C17.9728 6.21797 17.8275 6.11717 17.7059 5.99118C17.5843 5.86519 17.4887 5.71648 17.4246 5.55355C17.2951 5.22448 17.3016 4.85744 17.4427 4.53317C17.5838 4.2089 17.8479 3.95396 18.1769 3.82443C18.506 3.69491 18.8731 3.70141 19.1973 3.8425V3.83984Z" fill="white"/>
</svg>
