<svg width="16" height="16" viewBox="0 0 16 16" fill="none" xmlns="http://www.w3.org/2000/svg">
<path d="M10.707 14.364C10.8945 14.1764 10.9998 13.9221 10.9998 13.657C10.9998 13.3918 10.8945 13.1375 10.707 12.95L5.75699 7.99995L10.707 3.04995C10.8891 2.86135 10.9899 2.60875 10.9877 2.34655C10.9854 2.08435 10.8802 1.83354 10.6948 1.64813C10.5094 1.46272 10.2586 1.35756 9.99639 1.35528C9.73419 1.353 9.48159 1.45379 9.29299 1.63595L3.63599 7.29295C3.44852 7.48048 3.3432 7.73479 3.3432 7.99995C3.3432 8.26512 3.44852 8.51942 3.63599 8.70695L9.29299 14.364C9.48052 14.5514 9.73482 14.6567 9.99999 14.6567C10.2652 14.6567 10.5195 14.5514 10.707 14.364Z" fill="white"/>
</svg>
