<svg width="64" height="64" viewBox="0 0 64 64" fill="none" xmlns="http://www.w3.org/2000/svg">
<rect width="64" height="64" rx="32" fill="#C44500" fill-opacity="0.4"/>
<path d="M42.6667 24.0001C43.0065 24.0005 43.3334 24.1306 43.5805 24.3639C43.8276 24.5972 43.9763 24.916 43.9962 25.2553C44.0161 25.5945 43.9058 25.9286 43.6876 26.1892C43.4695 26.4498 43.1601 26.6173 42.8227 26.6574L42.6667 26.6667H42.5587L41.3333 41.3334C41.3334 42.3537 40.9436 43.3354 40.2436 44.0778C39.5437 44.8201 38.5865 45.2669 37.568 45.3267L37.3333 45.3334H26.6667C24.536 45.3334 22.7947 43.6681 22.6773 41.6667L22.6707 41.4441L21.44 26.6667H21.3333C20.9935 26.6664 20.6666 26.5362 20.4195 26.303C20.1724 26.0697 20.0237 25.7508 20.0038 25.4116C19.9838 25.0723 20.0942 24.7382 20.3123 24.4776C20.5305 24.217 20.8399 24.0496 21.1773 24.0094L21.3333 24.0001H42.6667ZM34.6667 18.6667C35.3739 18.6667 36.0522 18.9477 36.5523 19.4478C37.0524 19.9479 37.3333 20.6262 37.3333 21.3334C37.3329 21.6733 37.2028 22.0001 36.9695 22.2472C36.7362 22.4944 36.4174 22.6431 36.0781 22.663C35.7389 22.6829 35.4048 22.5725 35.1442 22.3544C34.8836 22.1363 34.7161 21.8269 34.676 21.4894L34.6667 21.3334H29.3333L29.324 21.4894C29.2838 21.8269 29.1164 22.1363 28.8558 22.3544C28.5952 22.5725 28.2611 22.6829 27.9218 22.663C27.5826 22.6431 27.2637 22.4944 27.0305 22.2472C26.7972 22.0001 26.667 21.6733 26.6667 21.3334C26.6664 20.6606 26.9205 20.0127 27.378 19.5194C27.8354 19.026 28.4624 18.7239 29.1333 18.6734L29.3333 18.6667H34.6667Z" fill="#DD4D00"/>
</svg>
