<svg width="32" height="32" viewBox="0 0 32 32" fill="none" xmlns="http://www.w3.org/2000/svg">
<path d="M26.6666 25.3332V13.9998C26.6666 13.7928 26.6185 13.5887 26.5259 13.4036C26.4333 13.2184 26.2989 13.0574 26.1333 12.9332L16.8 5.93317C16.5692 5.76007 16.2885 5.6665 16 5.6665C15.7115 5.6665 15.4308 5.76007 15.2 5.93317L5.86665 12.9332C5.70105 13.0574 5.56665 13.2184 5.47408 13.4036C5.38151 13.5887 5.33331 13.7928 5.33331 13.9998V25.3332C5.33331 25.6868 5.47379 26.0259 5.72384 26.276C5.97389 26.526 6.31302 26.6665 6.66665 26.6665H12C12.3536 26.6665 12.6927 26.526 12.9428 26.276C13.1928 26.0259 13.3333 25.6868 13.3333 25.3332V21.3332C13.3333 20.9795 13.4738 20.6404 13.7238 20.3904C13.9739 20.1403 14.313 19.9998 14.6666 19.9998H17.3333C17.6869 19.9998 18.0261 20.1403 18.2761 20.3904C18.5262 20.6404 18.6666 20.9795 18.6666 21.3332V25.3332C18.6666 25.6868 18.8071 26.0259 19.0572 26.276C19.3072 26.526 19.6464 26.6665 20 26.6665H25.3333C25.6869 26.6665 26.0261 26.526 26.2761 26.276C26.5262 26.0259 26.6666 25.6868 26.6666 25.3332Z" fill="white" stroke="white" stroke-width="2.66667" stroke-linecap="round" stroke-linejoin="round"/>
</svg>
