<svg width="32" height="32" viewBox="0 0 32 32" fill="none" xmlns="http://www.w3.org/2000/svg">
<rect x="1" y="1" width="30" height="30" rx="15" stroke="white" stroke-width="2"/>
<path fill-rule="evenodd" clip-rule="evenodd" d="M22.364 11.4074C22.5514 11.5949 22.6568 11.8492 22.6568 12.1144C22.6568 12.3795 22.5514 12.6338 22.364 12.8214L14.8686 20.3167C14.7696 20.4158 14.652 20.4944 14.5226 20.548C14.3931 20.6016 14.2544 20.6292 14.1143 20.6292C13.9742 20.6292 13.8355 20.6016 13.7061 20.548C13.5766 20.4944 13.459 20.4158 13.36 20.3167L9.63598 16.5934C9.54047 16.5011 9.46428 16.3908 9.41188 16.2688C9.35947 16.1468 9.33188 16.0156 9.33073 15.8828C9.32957 15.75 9.35487 15.6183 9.40516 15.4954C9.45544 15.3725 9.52969 15.2609 9.62358 15.167C9.71747 15.0731 9.82913 14.9988 9.95202 14.9486C10.0749 14.8983 10.2066 14.873 10.3394 14.8741C10.4722 14.8753 10.6034 14.9029 10.7254 14.9553C10.8474 15.0077 10.9577 15.0839 11.05 15.1794L14.114 18.2434L20.9493 11.4074C21.0422 11.3145 21.1524 11.2407 21.2738 11.1904C21.3952 11.1401 21.5253 11.1143 21.6566 11.1143C21.788 11.1143 21.9181 11.1401 22.0395 11.1904C22.1608 11.2407 22.2711 11.3145 22.364 11.4074Z" fill="white"/>
</svg>
