<svg width="64" height="64" viewBox="0 0 64 64" fill="none" xmlns="http://www.w3.org/2000/svg">
<rect width="64" height="64" rx="32" fill="#009327" fill-opacity="0.4"/>
<path fill-rule="evenodd" clip-rule="evenodd" d="M44.728 22.8148C45.103 23.1898 45.3136 23.6984 45.3136 24.2288C45.3136 24.7591 45.103 25.2677 44.728 25.6428L29.7373 40.6334C29.5392 40.8316 29.304 40.9888 29.0452 41.096C28.7863 41.2032 28.5089 41.2584 28.2287 41.2584C27.9485 41.2584 27.671 41.2032 27.4122 41.096C27.1533 40.9888 26.9181 40.8316 26.72 40.6334L19.272 33.1868C19.081 33.0023 18.9286 32.7816 18.8238 32.5376C18.719 32.2936 18.6638 32.0311 18.6615 31.7656C18.6592 31.5 18.7098 31.2366 18.8104 30.9908C18.9109 30.7451 19.0594 30.5218 19.2472 30.334C19.435 30.1462 19.6583 29.9977 19.9041 29.8971C20.1499 29.7966 20.4133 29.7459 20.6788 29.7483C20.9444 29.7506 21.2068 29.8057 21.4508 29.9106C21.6948 30.0154 21.9155 30.1677 22.1 30.3588L28.228 36.4868L41.8987 22.8148C42.0844 22.6289 42.305 22.4815 42.5477 22.3809C42.7904 22.2803 43.0506 22.2285 43.3134 22.2285C43.5761 22.2285 43.8363 22.2803 44.079 22.3809C44.3217 22.4815 44.5423 22.6289 44.728 22.8148Z" fill="#04B934"/>
</svg>
