<svg width="32" height="32" viewBox="0 0 32 32" fill="none" xmlns="http://www.w3.org/2000/svg">
<path d="M16 6C10.486 6 6 10.486 6 16V20.143C6 21.167 6.897 22 8 22H9C9.26522 22 9.51957 21.8946 9.70711 21.7071C9.89464 21.5196 10 21.2652 10 21V15.857C10 15.5918 9.89464 15.3374 9.70711 15.1499C9.51957 14.9624 9.26522 14.857 9 14.857H8.092C8.648 10.987 11.978 8 16 8C20.022 8 23.352 10.987 23.908 14.857H23C22.7348 14.857 22.4804 14.9624 22.2929 15.1499C22.1054 15.3374 22 15.5918 22 15.857V22C22 23.103 21.103 24 20 24H18V23H14V26H20C22.206 26 24 24.206 24 22C25.103 22 26 21.167 26 20.143V16C26 10.486 21.514 6 16 6Z" fill="url(#paint0_linear_1678_4524)"/>
<defs>
<linearGradient id="paint0_linear_1678_4524" x1="16" y1="6" x2="16" y2="26" gradientUnits="userSpaceOnUse">
<stop stop-color="#F647FF"/>
<stop offset="1" stop-color="#ADAEFF"/>
</linearGradient>
</defs>
</svg>
