<svg width="32" height="32" viewBox="0 0 32 32" fill="none" xmlns="http://www.w3.org/2000/svg">
<path d="M7.9998 30.333C7.26646 30.333 6.63891 30.0721 6.11713 29.5503C5.59535 29.0286 5.33402 28.4006 5.33313 27.6663V14.333C5.33313 13.5997 5.59446 12.9721 6.11713 12.4503C6.6398 11.9286 7.26735 11.6672 7.9998 11.6663H9.33313V8.99968C9.33313 7.15523 9.98335 5.58323 11.2838 4.28368C12.5842 2.98412 14.1562 2.3339 15.9998 2.33301C17.8434 2.33212 19.4158 2.98234 20.7171 4.28368C22.0185 5.58501 22.6682 7.15701 22.6665 8.99968V11.6663H23.9998C24.7331 11.6663 25.3611 11.9277 25.8838 12.4503C26.4065 12.973 26.6674 13.6006 26.6665 14.333V27.6663C26.6665 28.3997 26.4056 29.0277 25.8838 29.5503C25.362 30.073 24.734 30.3339 23.9998 30.333H7.9998ZM15.9998 23.6663C16.7331 23.6663 17.3611 23.4055 17.8838 22.8837C18.4065 22.3619 18.6674 21.7339 18.6665 20.9997C18.6656 20.2655 18.4047 19.6379 17.8838 19.117C17.3629 18.5961 16.7349 18.3348 15.9998 18.333C15.2647 18.3312 14.6371 18.5926 14.1171 19.117C13.5971 19.6415 13.3358 20.269 13.3331 20.9997C13.3305 21.7303 13.5918 22.3583 14.1171 22.8837C14.6425 23.409 15.27 23.6699 15.9998 23.6663ZM11.9998 11.6663H19.9998V8.99968C19.9998 7.88856 19.6109 6.94412 18.8331 6.16634C18.0554 5.38856 17.1109 4.99968 15.9998 4.99968C14.8887 4.99968 13.9442 5.38856 13.1665 6.16634C12.3887 6.94412 11.9998 7.88856 11.9998 8.99968V11.6663Z" fill="white" fill-opacity="0.4"/>
</svg>
