<svg width="108" height="32" viewBox="0 0 108 32" fill="none" xmlns="http://www.w3.org/2000/svg">
<circle cx="16" cy="16" r="14" stroke="#ADAEFF" stroke-width="4"/>
<circle cx="16" cy="16" r="10" fill="#ADAEFF"/>
<path d="M47.625 13.4205C47.5644 12.8826 47.3144 12.4659 46.875 12.1705C46.4356 11.8712 45.8826 11.7216 45.2159 11.7216C44.7386 11.7216 44.3258 11.7973 43.9773 11.9489C43.6288 12.0966 43.358 12.3011 43.1648 12.5625C42.9754 12.8201 42.8807 13.1136 42.8807 13.4432C42.8807 13.7197 42.9451 13.9583 43.0739 14.1591C43.2064 14.3598 43.3788 14.5284 43.5909 14.6648C43.8068 14.7973 44.0379 14.9091 44.2841 15C44.5303 15.0871 44.767 15.1591 44.9943 15.2159L46.1307 15.5114C46.5019 15.6023 46.8826 15.7254 47.2727 15.8807C47.6629 16.036 48.0246 16.2405 48.358 16.4943C48.6913 16.7481 48.9602 17.0625 49.1648 17.4375C49.3731 17.8125 49.4773 18.2614 49.4773 18.7841C49.4773 19.4432 49.3068 20.0284 48.9659 20.5398C48.6288 21.0511 48.1383 21.4545 47.4943 21.75C46.8542 22.0455 46.0795 22.1932 45.1705 22.1932C44.2992 22.1932 43.5455 22.0549 42.9091 21.7784C42.2727 21.5019 41.7746 21.1098 41.4148 20.6023C41.0549 20.0909 40.8561 19.4848 40.8182 18.7841H42.5795C42.6136 19.2045 42.75 19.5549 42.9886 19.8352C43.2311 20.1117 43.5398 20.3182 43.9148 20.4545C44.2936 20.5871 44.7083 20.6534 45.1591 20.6534C45.6553 20.6534 46.0966 20.5758 46.483 20.4205C46.8731 20.2614 47.1799 20.0417 47.4034 19.7614C47.6269 19.4773 47.7386 19.1458 47.7386 18.767C47.7386 18.4223 47.6402 18.1402 47.4432 17.9205C47.25 17.7008 46.9867 17.5189 46.6534 17.375C46.3239 17.2311 45.9508 17.1042 45.5341 16.9943L44.1591 16.6193C43.2273 16.3655 42.4886 15.9924 41.9432 15.5C41.4015 15.0076 41.1307 14.3561 41.1307 13.5455C41.1307 12.875 41.3125 12.2898 41.6761 11.7898C42.0398 11.2898 42.5322 10.9015 43.1534 10.625C43.7746 10.3447 44.4754 10.2045 45.2557 10.2045C46.0436 10.2045 46.7386 10.3428 47.3409 10.6193C47.947 10.8958 48.4242 11.2765 48.7727 11.7614C49.1212 12.2424 49.303 12.7955 49.3182 13.4205H47.625ZM54.7923 22.1761C53.9324 22.1761 53.1919 21.9924 52.5707 21.625C51.9533 21.2538 51.476 20.733 51.1389 20.0625C50.8055 19.3883 50.6389 18.5985 50.6389 17.6932C50.6389 16.7992 50.8055 16.0114 51.1389 15.3295C51.476 14.6477 51.9457 14.1155 52.548 13.733C53.154 13.3504 53.8624 13.1591 54.673 13.1591C55.1654 13.1591 55.6427 13.2405 56.1048 13.4034C56.5669 13.5663 56.9817 13.822 57.3491 14.1705C57.7165 14.5189 58.0063 14.9716 58.2184 15.5284C58.4305 16.0814 58.5366 16.7538 58.5366 17.5455V18.1477H51.5991V16.875H56.8718C56.8718 16.428 56.7809 16.0322 56.5991 15.6875C56.4173 15.339 56.1616 15.0644 55.8321 14.8636C55.5063 14.6629 55.1237 14.5625 54.6843 14.5625C54.2071 14.5625 53.7904 14.6799 53.4343 14.9148C53.0821 15.1458 52.8093 15.4489 52.6161 15.8239C52.4268 16.1951 52.3321 16.5985 52.3321 17.0341V18.0284C52.3321 18.6117 52.4343 19.108 52.6389 19.517C52.8472 19.9261 53.137 20.2386 53.5082 20.4545C53.8794 20.6667 54.3131 20.7727 54.8093 20.7727C55.1313 20.7727 55.4249 20.7273 55.69 20.6364C55.9552 20.5417 56.1843 20.4015 56.3775 20.2159C56.5707 20.0303 56.7184 19.8011 56.8207 19.5284L58.4286 19.8182C58.2999 20.2917 58.0688 20.7064 57.7355 21.0625C57.4059 21.4148 56.9911 21.6894 56.4911 21.8864C55.9949 22.0795 55.4286 22.1761 54.7923 22.1761ZM61.7124 10.3636V22H60.0135V10.3636H61.7124ZM67.3513 22.1761C66.4914 22.1761 65.7509 21.9924 65.1297 21.625C64.5123 21.2538 64.035 20.733 63.6979 20.0625C63.3645 19.3883 63.1979 18.5985 63.1979 17.6932C63.1979 16.7992 63.3645 16.0114 63.6979 15.3295C64.035 14.6477 64.5047 14.1155 65.107 13.733C65.713 13.3504 66.4214 13.1591 67.232 13.1591C67.7244 13.1591 68.2017 13.2405 68.6638 13.4034C69.1259 13.5663 69.5407 13.822 69.9081 14.1705C70.2755 14.5189 70.5653 14.9716 70.7774 15.5284C70.9895 16.0814 71.0956 16.7538 71.0956 17.5455V18.1477H64.1581V16.875H69.4308C69.4308 16.428 69.3399 16.0322 69.1581 15.6875C68.9763 15.339 68.7206 15.0644 68.3911 14.8636C68.0653 14.6629 67.6827 14.5625 67.2433 14.5625C66.7661 14.5625 66.3494 14.6799 65.9933 14.9148C65.6411 15.1458 65.3683 15.4489 65.1751 15.8239C64.9858 16.1951 64.8911 16.5985 64.8911 17.0341V18.0284C64.8911 18.6117 64.9933 19.108 65.1979 19.517C65.4062 19.9261 65.696 20.2386 66.0672 20.4545C66.4384 20.6667 66.8721 20.7727 67.3683 20.7727C67.6903 20.7727 67.9839 20.7273 68.249 20.6364C68.5142 20.5417 68.7433 20.4015 68.9365 20.2159C69.1297 20.0303 69.2774 19.8011 69.3797 19.5284L70.9876 19.8182C70.8589 20.2917 70.6278 20.7064 70.2945 21.0625C69.9649 21.4148 69.5501 21.6894 69.0501 21.8864C68.5539 22.0795 67.9876 22.1761 67.3513 22.1761ZM76.2487 22.1761C75.404 22.1761 74.6767 21.9848 74.0669 21.6023C73.4608 21.2159 72.9949 20.6837 72.6691 20.0057C72.3434 19.3277 72.1805 18.5511 72.1805 17.6761C72.1805 16.7898 72.3472 16.0076 72.6805 15.3295C73.0138 14.6477 73.4835 14.1155 74.0896 13.733C74.6957 13.3504 75.4097 13.1591 76.2316 13.1591C76.8945 13.1591 77.4854 13.2822 78.0044 13.5284C78.5233 13.7708 78.9419 14.1117 79.26 14.5511C79.582 14.9905 79.7733 15.5038 79.8339 16.0909H78.1805C78.0896 15.6818 77.8813 15.3295 77.5555 15.0341C77.2335 14.7386 76.8017 14.5909 76.26 14.5909C75.7866 14.5909 75.3718 14.7159 75.0157 14.9659C74.6635 15.2121 74.3888 15.5644 74.1919 16.0227C73.9949 16.4773 73.8964 17.0152 73.8964 17.6364C73.8964 18.2727 73.993 18.822 74.1862 19.2841C74.3794 19.7462 74.6521 20.1042 75.0044 20.358C75.3604 20.6117 75.779 20.7386 76.26 20.7386C76.582 20.7386 76.8737 20.6799 77.135 20.5625C77.4002 20.4413 77.6218 20.2689 77.7998 20.0455C77.9816 19.822 78.1085 19.553 78.1805 19.2386H79.8339C79.7733 19.803 79.5896 20.3068 79.2828 20.75C78.976 21.1932 78.565 21.5417 78.0498 21.7955C77.5385 22.0492 76.9381 22.1761 76.2487 22.1761ZM85.3165 13.2727V14.6364H80.5495V13.2727H85.3165ZM81.8279 11.1818H83.5268V19.4375C83.5268 19.767 83.576 20.0152 83.6745 20.1818C83.773 20.3447 83.8999 20.4564 84.0552 20.517C84.2143 20.5739 84.3866 20.6023 84.5722 20.6023C84.7086 20.6023 84.8279 20.5928 84.9302 20.5739C85.0324 20.5549 85.112 20.5398 85.1688 20.5284L85.4756 21.9318C85.3771 21.9697 85.237 22.0076 85.0552 22.0455C84.8734 22.0871 84.6461 22.1098 84.3734 22.1136C83.9264 22.1212 83.5097 22.0417 83.1234 21.875C82.737 21.7083 82.4245 21.4508 82.1859 21.1023C81.9472 20.7538 81.8279 20.3163 81.8279 19.7898V11.1818ZM91.7335 22H89.8699L94.0574 10.3636H96.0858L100.273 22H98.4096L95.1199 12.4773H95.0289L91.7335 22ZM92.046 17.4432H98.0914V18.9205H92.046V17.4432ZM103.108 10.3636V22H101.409V10.3636H103.108ZM106.685 10.3636V22H104.986V10.3636H106.685Z" fill="white"/>
</svg>
