<svg width="32" height="32" viewBox="0 0 32 32" fill="none" xmlns="http://www.w3.org/2000/svg">
<path d="M26.3332 5.3335C27.1288 5.3335 27.8919 5.64957 28.4545 6.21218C29.0171 6.77479 29.3332 7.53785 29.3332 8.3335V23.6735C29.3332 24.4691 29.0171 25.2322 28.4545 25.7948C27.8919 26.3574 27.1288 26.6735 26.3332 26.6735H5.6665C5.27254 26.6735 4.88243 26.5959 4.51845 26.4451C4.15448 26.2944 3.82376 26.0734 3.54518 25.7948C3.26661 25.5162 3.04563 25.1855 2.89487 24.8215C2.7441 24.4576 2.6665 24.0675 2.6665 23.6735V8.3335C2.6665 7.53785 2.98257 6.77479 3.54518 6.21218C4.10779 5.64957 4.87085 5.3335 5.6665 5.3335H26.3332ZM12.9998 16.6668H8.33317C8.09152 16.6668 7.85805 16.7544 7.67593 16.9132C7.49381 17.072 7.37537 17.2914 7.3425 17.5308L7.33317 17.6668V18.3228L7.34384 18.4668C7.55984 19.9522 8.8025 20.6668 10.6665 20.6668C12.4412 20.6668 13.6532 20.0188 13.9518 18.6748L13.9892 18.4682L13.9998 18.3242V17.6668C13.9998 17.4252 13.9123 17.1917 13.7535 17.0096C13.5946 16.8275 13.3752 16.709 13.1358 16.6762L12.9998 16.6668ZM23.6665 17.3282H17.6692L17.5332 17.3375C17.2938 17.3704 17.0745 17.4889 16.9157 17.671C16.7569 17.8531 16.6695 18.0866 16.6695 18.3282C16.6695 18.5698 16.7569 18.8032 16.9157 18.9853C17.0745 19.1674 17.2938 19.2859 17.5332 19.3188L17.6692 19.3282H23.6665L23.8025 19.3188C24.0419 19.2859 24.2612 19.1674 24.42 18.9853C24.5787 18.8032 24.6662 18.5698 24.6662 18.3282C24.6662 18.0866 24.5787 17.8531 24.42 17.671C24.2612 17.4889 24.0419 17.3704 23.8025 17.3375L23.6665 17.3282ZM10.6665 11.3362C10.1361 11.3362 9.62736 11.5469 9.25229 11.9219C8.87722 12.297 8.6665 12.8057 8.6665 13.3362C8.6665 13.8666 8.87722 14.3753 9.25229 14.7504C9.62736 15.1254 10.1361 15.3362 10.6665 15.3362C11.1969 15.3362 11.7056 15.1254 12.0807 14.7504C12.4558 14.3753 12.6665 13.8666 12.6665 13.3362C12.6665 12.8057 12.4558 12.297 12.0807 11.9219C11.7056 11.5469 11.1969 11.3362 10.6665 11.3362ZM23.6665 12.6668H17.6692L17.5332 12.6762C17.2938 12.7091 17.0745 12.8276 16.9157 13.0097C16.7569 13.1918 16.6695 13.4252 16.6695 13.6668C16.6695 13.9084 16.7569 14.1419 16.9157 14.324C17.0745 14.5061 17.2938 14.6246 17.5332 14.6575L17.6692 14.6668H23.6665L23.8025 14.6575C24.0419 14.6246 24.2612 14.5061 24.42 14.324C24.5787 14.1419 24.6662 13.9084 24.6662 13.6668C24.6662 13.4252 24.5787 13.1918 24.42 13.0097C24.2612 12.8276 24.0419 12.7091 23.8025 12.6762L23.6665 12.6668Z" fill="white"/>
</svg>
