<svg width="32" height="32" viewBox="0 0 32 32" fill="none" xmlns="http://www.w3.org/2000/svg">
<path d="M14.4333 29.3332C13.8333 29.3332 13.3169 29.1332 12.884 28.7332C12.4511 28.3332 12.1898 27.8443 12.1 27.2665L11.8 25.0665C11.5111 24.9554 11.2391 24.8221 10.984 24.6665C10.7289 24.5109 10.4786 24.3443 10.2333 24.1665L8.16664 25.0332C7.61109 25.2776 7.05553 25.2998 6.49997 25.0998C5.94442 24.8998 5.51109 24.5443 5.19997 24.0332L3.63331 21.2998C3.3222 20.7887 3.23331 20.2443 3.36664 19.6665C3.49997 19.0887 3.79997 18.6109 4.26664 18.2332L6.03331 16.8998C6.01109 16.7443 5.99997 16.5941 5.99997 16.4492V15.5492C5.99997 15.4052 6.01109 15.2554 6.03331 15.0998L4.26664 13.7665C3.79997 13.3887 3.49997 12.9109 3.36664 12.3332C3.23331 11.7554 3.3222 11.2109 3.63331 10.6998L5.19997 7.9665C5.51109 7.45539 5.94442 7.09984 6.49997 6.89984C7.05553 6.69984 7.61109 6.72206 8.16664 6.9665L10.2333 7.83317C10.4778 7.65539 10.7333 7.48873 11 7.33317C11.2666 7.17762 11.5333 7.04428 11.8 6.93317L12.1 4.73317C12.1889 4.15539 12.4502 3.6665 12.884 3.2665C13.3178 2.8665 13.8342 2.6665 14.4333 2.6665H17.5666C18.1666 2.6665 18.6835 2.8665 19.1173 3.2665C19.5511 3.6665 19.812 4.15539 19.9 4.73317L20.2 6.93317C20.4889 7.04428 20.7613 7.17762 21.0173 7.33317C21.2733 7.48873 21.5231 7.65539 21.7666 7.83317L23.8333 6.9665C24.3889 6.72206 24.9444 6.69984 25.5 6.89984C26.0555 7.09984 26.4889 7.45539 26.8 7.9665L28.3666 10.6998C28.6778 11.2109 28.7666 11.7554 28.6333 12.3332C28.5 12.9109 28.2 13.3887 27.7333 13.7665L25.9666 15.0998C25.9889 15.2554 26 15.4056 26 15.5505V16.4492C26 16.5941 25.9778 16.7443 25.9333 16.8998L27.7 18.2332C28.1666 18.6109 28.4666 19.0887 28.6 19.6665C28.7333 20.2443 28.6444 20.7887 28.3333 21.2998L26.7333 24.0332C26.4222 24.5443 25.9889 24.8998 25.4333 25.0998C24.8778 25.2998 24.3222 25.2776 23.7666 25.0332L21.7666 24.1665C21.5222 24.3443 21.2666 24.5109 21 24.6665C20.7333 24.8221 20.4666 24.9554 20.2 25.0665L19.9 27.2665C19.8111 27.8443 19.5502 28.3332 19.1173 28.7332C18.6844 29.1332 18.1675 29.3332 17.5666 29.3332H14.4333ZM16.0666 20.6665C17.3555 20.6665 18.4555 20.2109 19.3666 19.2998C20.2778 18.3887 20.7333 17.2887 20.7333 15.9998C20.7333 14.7109 20.2778 13.6109 19.3666 12.6998C18.4555 11.7887 17.3555 11.3332 16.0666 11.3332C14.7555 11.3332 13.6498 11.7887 12.7493 12.6998C11.8489 13.6109 11.3991 14.7109 11.4 15.9998C11.4009 17.2887 11.8511 18.3887 12.7506 19.2998C13.6502 20.2109 14.7555 20.6665 16.0666 20.6665Z" fill="white"/>
</svg>
