<svg width="32" height="32" viewBox="0 0 32 32" fill="none" xmlns="http://www.w3.org/2000/svg">
<path d="M16 21.275L11.85 23.775C11.6667 23.8916 11.475 23.9416 11.275 23.9249C11.075 23.9083 10.9 23.8416 10.75 23.725C10.6 23.6083 10.4834 23.4626 10.4 23.288C10.3167 23.1133 10.3 22.9173 10.35 22.7L11.45 17.975L7.77502 14.8C7.60836 14.65 7.50436 14.479 7.46302 14.287C7.42169 14.095 7.43402 13.9076 7.50002 13.725C7.56602 13.5423 7.66602 13.3923 7.80002 13.275C7.93402 13.1576 8.11736 13.0826 8.35002 13.05L13.2 12.625L15.075 8.17495C15.1584 7.97495 15.2877 7.82495 15.463 7.72495C15.6384 7.62495 15.8174 7.57495 16 7.57495C16.1827 7.57495 16.3617 7.62495 16.537 7.72495C16.7124 7.82495 16.8417 7.97495 16.925 8.17495L18.8 12.625L23.65 13.05C23.8834 13.0833 24.0667 13.1583 24.2 13.275C24.3334 13.3916 24.4334 13.5416 24.5 13.725C24.5667 13.9083 24.5794 14.096 24.538 14.288C24.4967 14.48 24.3924 14.6506 24.225 14.8L20.55 17.975L21.65 22.7C21.7 22.9166 21.6834 23.1126 21.6 23.288C21.5167 23.4633 21.4 23.609 21.25 23.725C21.1 23.841 20.925 23.9076 20.725 23.9249C20.525 23.9423 20.3334 23.8923 20.15 23.775L16 21.275Z" fill="url(#paint0_linear_1678_4531)"/>
<defs>
<linearGradient id="paint0_linear_1678_4531" x1="16.0005" y1="7.57495" x2="16.0005" y2="23.9283" gradientUnits="userSpaceOnUse">
<stop stop-color="#F647FF"/>
<stop offset="1" stop-color="#ADAEFF"/>
</linearGradient>
</defs>
</svg>
