<svg width="32" height="32" viewBox="0 0 32 32" fill="none" xmlns="http://www.w3.org/2000/svg">
<path d="M25 10.3C25 9.51 24.53 8.79 23.81 8.47L16.81 5.36C16.29 5.13 15.7 5.13 15.19 5.36L8.19 8.47C7.47 8.79 7 9.51 7 10.3V15C7 20.55 10.84 25.74 16 27C18.3 26.44 20.33 25.1 21.88 23.29L18.76 20.17C17.7987 20.8054 16.6472 21.0888 15.5008 20.9721C14.3544 20.8555 13.2836 20.346 12.47 19.53C11.5334 18.592 11.0073 17.3206 11.0073 15.995C11.0073 14.6694 11.5334 13.398 12.47 12.46C13.408 11.5234 14.6794 10.9973 16.005 10.9973C17.3306 10.9973 18.602 11.5234 19.54 12.46C20.354 13.2748 20.8621 14.3454 20.9787 15.4912C21.0952 16.637 20.8132 17.7879 20.18 18.75L23.08 21.65C24.29 19.69 25 17.38 25 15V10.3Z" fill="url(#paint0_linear_1678_4505)"/>
<path d="M16 19C17.6569 19 19 17.6569 19 16C19 14.3431 17.6569 13 16 13C14.3431 13 13 14.3431 13 16C13 17.6569 14.3431 19 16 19Z" fill="url(#paint1_linear_1678_4505)"/>
<defs>
<linearGradient id="paint0_linear_1678_4505" x1="16" y1="5.1875" x2="16" y2="27" gradientUnits="userSpaceOnUse">
<stop stop-color="#F647FF"/>
<stop offset="1" stop-color="#ADAEFF"/>
</linearGradient>
<linearGradient id="paint1_linear_1678_4505" x1="16" y1="13" x2="16" y2="19" gradientUnits="userSpaceOnUse">
<stop stop-color="#F647FF"/>
<stop offset="1" stop-color="#ADAEFF"/>
</linearGradient>
</defs>
</svg>
